<?xml version="1.0" encoding="utf-8"?>
<!-- Generator: Adobe Illustrator 21.0.0, SVG Export Plug-In . SVG Version: 6.00 Build 0)  -->
<svg version="1.1" xmlns="http://www.w3.org/2000/svg" xmlns:xlink="http://www.w3.org/1999/xlink" x="0px" y="0px"
	 viewBox="0 0 1400 1400" style="enable-background:new 0 0 1400 1400;" xml:space="preserve">
<style type="text/css">
	.st0{fill:#F8FFFF;}
	.st1{fill:#CDEBFF;}
	.st2{fill:#D8D8DB;}
	.st3{fill:#8DA4B5;}
	.st4{fill:#597882;}
	.st5{fill:#444E51;}
	.st6{fill:#F5F5F2;}
	.st7{fill:#7F4E50;}
	.st8{fill:#3C4F6E;}
	.st9{fill:#51585B;}
	.st10{fill:#393E41;}
	.st11{fill:#A5B4C2;}
	.st12{fill:#849084;}
	.st13{fill:#647889;}
	.st14{fill:#F4695E;}
	.st15{fill:#F4C995;}
	.st16{fill:#FBB040;}
	.st17{fill:#C49A6C;}
	.st18{fill:#26382D;}
	.st19{fill:#BCBEC0;}
	.st20{fill:#EB1B4B;}
	.st21{fill:#80E4DC;}
	.st22{fill:#88C7D0;}
	.st23{fill:#74B1B5;}
	.st24{fill:#A6ACB7;}
	.st25{fill:#88909E;}
	.st26{fill:#FFFFFF;}
	.st27{fill:#3C3B38;}
	.st28{fill:#262623;}
	.st29{fill:#FCB184;}
	.st30{fill:#E8E3E3;}
	.st31{fill:#D82A27;}
	.st32{fill:#B71A1A;}
	.st33{fill:#991010;}
	.st34{fill:#333332;}
	.st35{fill:#DD8C64;}
	.st36{fill:#FFFEFE;}
	.st37{fill:#B0662F;}
	.st38{fill:#623321;}
	.st39{fill:#EFD2C5;}
	.st40{fill:#8C4C38;}
	.st41{fill:#6D3526;}
	.st42{fill:#D5D4DB;}
	.st43{fill:#C0BECC;}
	.st44{fill:#D9F7FF;}
	.st45{fill:#C1E3EA;}
	.st46{fill:#99B6C6;}
	.st47{fill:#D5DCE0;}
	.st48{fill:#939598;}
	.st49{fill:#25313A;}
	.st50{fill:#47595B;}
	.st51{fill:#3A4849;}
	.st52{fill:#0F576D;}
	.st53{fill:#186D87;}
	.st54{fill:#13617F;}
	.st55{fill:#F9E1DF;}
	.st56{fill:#3E4A54;}
	.st57{fill:#58595B;}
	.st58{fill:#4F5B67;}
	.st59{fill:#384651;}
	.st60{fill:#DEE8E7;}
	.st61{fill:#B9C6C4;}
	.st62{fill:#A3AFAD;}
	.st63{fill:#7F9998;}
	.st64{fill:#536B6B;}
	.st65{fill:#FAC88F;}
	.st66{fill:#4F6657;}
	.st67{fill:#EFC9B6;}
	.st68{fill:#385141;}
</style>
<g id="background">
	<rect class="st0" width="1400" height="1400"/>
</g>
<g id="object">
	<g>
		<path class="st1" d="M765,106.1H624.2c-247.4,0-447.9,200.5-447.9,447.9v524.5h1036.6V554C1212.9,306.6,1012.4,106.1,765,106.1z"
			/>
		<ellipse class="st2" cx="700" cy="1073" rx="551.9" ry="121"/>
		<g>
			<rect x="807.6" y="257.5" class="st3" width="435.1" height="785.8"/>
			<rect x="825.5" y="276.7" class="st4" width="399.3" height="734.6"/>
			<rect x="825.5" y="653.2" class="st3" width="399.3" height="13.6"/>
			<rect x="825.5" y="460.6" class="st3" width="399.3" height="13.6"/>
			<rect x="825.5" y="824.1" class="st3" width="399.3" height="13.6"/>
			<rect x="825.1" y="866.7" class="st5" width="35.1" height="144.6"/>
			<rect x="827.4" y="895.6" class="st6" width="30.6" height="86.6"/>
			<rect x="860.2" y="866.7" class="st7" width="35.1" height="144.6"/>
			<rect x="862.5" y="895.6" class="st6" width="30.6" height="86.6"/>
			<rect x="895.3" y="866.7" class="st8" width="35.1" height="144.6"/>
			<rect x="897.6" y="895.6" class="st6" width="30.6" height="86.6"/>
			<rect x="930.4" y="866.7" class="st5" width="35.1" height="144.6"/>
			<rect x="932.7" y="895.6" class="st6" width="30.6" height="86.6"/>
			<rect x="827.4" y="718.2" class="st9" width="25.7" height="105.9"/>
			<rect x="829" y="739.4" class="st6" width="22.4" height="15.5"/>
			<rect x="853.1" y="718.2" class="st8" width="25.7" height="105.9"/>
			<rect x="854.7" y="739.4" class="st6" width="22.4" height="15.5"/>
			<rect x="878.8" y="718.2" class="st9" width="25.7" height="105.9"/>
			<rect x="880.4" y="739.4" class="st6" width="22.4" height="15.5"/>
			<rect x="904.5" y="718.2" class="st8" width="25.7" height="105.9"/>
			<rect x="906.1" y="739.4" class="st6" width="22.4" height="15.5"/>
			<rect x="829" y="808.9" class="st6" width="22.4" height="6"/>
			<rect x="854.7" y="808.9" class="st6" width="22.4" height="6"/>
			<rect x="880.4" y="808.9" class="st6" width="22.4" height="6"/>
			<rect x="906.1" y="808.9" class="st6" width="22.4" height="6"/>
			<rect x="829" y="799" class="st6" width="22.4" height="6"/>
			<rect x="854.7" y="799" class="st6" width="22.4" height="6"/>
			<rect x="880.4" y="799" class="st6" width="22.4" height="6"/>
			<rect x="906.1" y="799" class="st6" width="22.4" height="6"/>
			<rect x="930.4" y="718.2" class="st9" width="25.7" height="105.9"/>
			<rect x="932.1" y="739.4" class="st6" width="22.4" height="15.5"/>
			<rect x="956.1" y="718.2" class="st8" width="25.7" height="105.9"/>
			<rect x="957.8" y="739.4" class="st6" width="22.4" height="15.5"/>
			<rect x="981.8" y="718.2" class="st9" width="25.7" height="105.9"/>
			<rect x="983.5" y="739.4" class="st6" width="22.4" height="15.5"/>
			<rect x="1007.5" y="718.2" class="st8" width="25.7" height="105.9"/>
			<rect x="1009.2" y="739.4" class="st6" width="22.4" height="15.5"/>
			<rect x="932.1" y="799" class="st6" width="22.4" height="6"/>
			<rect x="957.8" y="799" class="st6" width="22.4" height="6"/>
			<rect x="983.5" y="799" class="st6" width="22.4" height="6"/>
			<rect x="1009.2" y="799" class="st6" width="22.4" height="6"/>
			<rect x="1033.5" y="718.2" class="st9" width="25.7" height="105.9"/>
			<rect x="1035.1" y="739.4" class="st6" width="22.4" height="15.5"/>
			
				<rect x="1065.4" y="717.1" transform="matrix(0.9929 -0.1191 0.1191 0.9929 -84.0132 133.8674)" class="st8" width="25.7" height="105.9"/>
			
				<rect x="1064.2" y="738.4" transform="matrix(0.9929 -0.1191 0.1191 0.9929 -81.1982 133.358)" class="st6" width="22.4" height="15.5"/>
			<rect x="1035.1" y="799" class="st6" width="22.4" height="6"/>
			
				<rect x="1070.7" y="797.7" transform="matrix(0.9929 -0.1191 0.1191 0.9929 -87.6388 134.5236)" class="st6" width="22.4" height="6"/>
			
				<rect x="1091.2" y="717.1" transform="matrix(0.9929 -0.1191 0.1191 0.9929 -83.83 136.9342)" class="st10" width="25.7" height="105.9"/>
			
				<rect x="1090" y="738.4" transform="matrix(0.9929 -0.1191 0.1191 0.9929 -81.015 136.4248)" class="st6" width="22.4" height="15.5"/>
			
				<rect x="1096.5" y="797.7" transform="matrix(0.9929 -0.1191 0.1191 0.9929 -87.4556 137.5903)" class="st6" width="22.4" height="6"/>
			
				<rect x="1116.9" y="717.1" transform="matrix(0.9929 -0.1191 0.1191 0.9929 -83.6467 140.0009)" class="st8" width="25.7" height="105.9"/>
			
				<rect x="1115.7" y="738.4" transform="matrix(0.9929 -0.1191 0.1191 0.9929 -80.8318 139.4915)" class="st6" width="22.4" height="15.5"/>
			
				<rect x="1122.2" y="797.7" transform="matrix(0.9929 -0.1191 0.1191 0.9929 -87.2724 140.6571)" class="st6" width="22.4" height="6"/>
			
				<rect x="1142.7" y="717.1" transform="matrix(0.9929 -0.1191 0.1191 0.9929 -83.4635 143.0677)" class="st8" width="25.7" height="105.9"/>
			
				<rect x="1141.5" y="738.4" transform="matrix(0.9929 -0.1191 0.1191 0.9929 -80.6485 142.5582)" class="st6" width="22.4" height="15.5"/>
			
				<rect x="1148" y="797.7" transform="matrix(0.9929 -0.1191 0.1191 0.9929 -87.0891 143.7238)" class="st6" width="22.4" height="6"/>
			<rect x="827.4" y="546.3" class="st8" width="31.9" height="106.9"/>
			<rect x="877.1" y="518.6" class="st11" width="20.1" height="134.6"/>
			<rect x="859.2" y="564.6" class="st12" width="17.9" height="88.5"/>
			<rect x="897.2" y="535.6" class="st13" width="17.9" height="117.5"/>
			<rect x="915.1" y="546.3" class="st8" width="31.9" height="106.9"/>
			<rect x="964.8" y="518.6" class="st11" width="20.1" height="134.6"/>
			<rect x="946.9" y="564.6" class="st12" width="17.9" height="88.5"/>
			<rect x="984.9" y="535.6" class="st13" width="17.9" height="117.5"/>
			
				<rect x="1014.3" y="535.6" transform="matrix(0.9792 -0.2029 0.2029 0.9792 -99.3148 219.9583)" class="st14" width="17.9" height="117.5"/>
		</g>
		<g>
			<rect x="909.5" y="637.9" class="st15" width="2.6" height="47.1"/>
			<rect x="906.9" y="637.9" class="st16" width="2.6" height="47.1"/>
			<path class="st17" d="M909.5,629.4l-2.6,8.4c1.5,1.6,2.6,0,2.6,0s1,1.6,2.6,0L909.5,629.4z"/>
			<polygon class="st18" points="909.5,629.4 908.2,633.5 910.7,633.5 			"/>
		</g>
		<g>
			<path class="st18" d="M926.6,638.4l-0.9-0.2c-0.8-0.2-1.6,0.4-1.8,1.2l-1.1,6l4,0.7l1.1-6C928,639.3,927.4,638.5,926.6,638.4z"/>
			
				<rect x="917" y="647.7" transform="matrix(0.983 0.1835 -0.1835 0.983 137.9013 -157.6755)" class="st18" width="7.7" height="37.2"/>
			
				<rect x="920.2" y="645.4" transform="matrix(0.983 0.1835 -0.1835 0.983 134.3774 -158.6767)" class="st19" width="8.7" height="2.6"/>
			
				<rect x="927.1" y="646.2" transform="matrix(0.983 0.1835 -0.1835 0.983 136.2656 -159.1108)" class="st19" width="1.4" height="21"/>
		</g>
		<g>
			<path class="st20" d="M918.9,643.9l-0.9-0.2c-0.8-0.2-1.6,0.4-1.8,1.2l-1.1,6l4,0.7l1.1-6C920.3,644.9,919.7,644.1,918.9,643.9z"
				/>
			
				<rect x="909.3" y="653.2" transform="matrix(0.983 0.1835 -0.1835 0.983 138.788 -156.1662)" class="st20" width="7.7" height="37.2"/>
			
				<rect x="912.4" y="651" transform="matrix(0.983 0.1835 -0.1835 0.983 135.2642 -157.1674)" class="st19" width="8.7" height="2.6"/>
			
				<rect x="919.4" y="651.7" transform="matrix(0.983 0.1835 -0.1835 0.983 137.1523 -157.6014)" class="st19" width="1.4" height="21"/>
		</g>
		<g>
			<path class="st21" d="M894.4,643.8l-0.9,0.3c-0.8,0.3-1.2,1.2-0.9,2l2.1,5.7l3.8-1.4l-2.1-5.7
				C896.1,643.9,895.2,643.5,894.4,643.8z"/>
			
				<rect x="900.2" y="652" transform="matrix(0.9361 -0.3518 0.3518 0.9361 -178.1243 360.8645)" class="st21" width="7.7" height="37.2"/>
			
				<rect x="892.6" y="650.7" transform="matrix(0.9361 -0.3518 0.3518 0.9361 -172.0256 357.2155)" class="st19" width="8.7" height="2.6"/>
			
				<rect x="904.3" y="648.4" transform="matrix(0.9361 -0.3518 0.3518 0.9361 -173.9219 360.4607)" class="st19" width="1.4" height="21"/>
		</g>
		<path class="st22" d="M931.5,672.4h-38c-3.1,0-5.6,2.5-5.6,5.6v52.1h49.3V678C937.1,674.9,934.6,672.4,931.5,672.4z"/>
		<path class="st23" d="M920.8,681.8h-23.4c-3.4,0-6.1,2.7-6.1,6.1v38.4c0,0.3,0.2,0.5,0.5,0.5h34.7c0.3,0,0.5-0.2,0.5-0.5v-38.4
			C926.9,684.5,924.2,681.8,920.8,681.8z"/>
		<g>
			<rect x="416.7" y="963.1" class="st24" width="26" height="70.2"/>
			<rect x="418" y="964" class="st25" width="9.3" height="70.2"/>
			<rect x="437.7" y="978.1" class="st26" width="3.8" height="56.1"/>
			<circle class="st27" cx="522.1" cy="1095.3" r="15.6"/>
			<path class="st28" d="M364.3,930.5c0,0,12.8,31,59.7,31c39.9,0,70.1-15.1,69.6-34.4C493.1,907.9,364.3,930.5,364.3,930.5z"/>
			<path class="st29" d="M613.7,627.2l14.5-30c0,0-0.3-26.8,4.4-38.7c4.6-11.9-0.3-28.7-1.7-32.2c-1.5-3.5,1.9-7.5,3.7-7.3
				c1.8,0.3,7.5,6.5,8.7,10c1.2,3.5,6.5,27.3,6.5,27.3s25.8-6,28.4-6c2.6,0,11.6,3.8,12.5,8.4S688,566,688,566s2.6,6.7,2.8,10.7
				c0.2,4.1-4.2,5.8-4.2,5.8s3.8,5.8-0.3,9.9c0,0,1.7,6.7-1.5,9.3c-3.2,2.6-11.6,1.5-11.6,1.5s-11.6,7.3-17.7,9s-9.3,2-9.3,2
				s-14.6,25.2-15.5,25C629.8,638.8,613.7,627.2,613.7,627.2z"/>
			<polygon class="st30" points="610.4,627.5 616.9,614.6 642.3,624.2 635.1,638.1 			"/>
			<path class="st27" d="M596.1,1104.3h-3.2v5.8c0,0,67.5,2.9,72.7,2.9c5.2,0,38.3-4.5,39.5-5.8c1.2-1.3,0-5.8,0-5.8
				s-11.9,1.7-12.6,1.6C691.7,1102.9,596.1,1104.3,596.1,1104.3z"/>
			<polygon class="st26" points="610.8,1038.2 606.6,1082.4 599.9,1092.8 599.9,1103 649.8,1103 653.9,1092.8 630.8,1081 
				635.9,1035.3 			"/>
			<path class="st28" d="M372,764.9c46.1-13.2,173.4-21.1,182.4-13.2s11.5,115.4,8.7,123c-2.8,7.6,5.1,12.8-31,18.1
				c-36.1,5.2-103.6-6.2-106.6-17.6s1.7-18.5,1.7-18.5s99.7,6.7,108.4-8.6c8.7-15.2,7.8-60.4-0.4-69.9s-131.4,2.3-151.2,5.4
				C364.2,786.8,366.9,766.3,372,764.9z"/>
			<path class="st31" d="M566.8,730.3c-5-7.8-88.5,3.1-123.7,7.3c-6.6,0.8-11.1,7.2-9.5,13.7h0c1.3,5.1,5.9,8.6,11.2,8.4
				c24.2-0.9,90-3.5,107.9-6.8C574.6,748.9,572.9,739.9,566.8,730.3z"/>
			<path class="st27" d="M473.7,619.6c0,0,55.9,75.6,84.3,83.1c6.6,1.7,48.9-76.8,51.8-79.7s32.5,9.9,32.5,9.9
				s-53.3,108.9-69.6,115.7c-16.2,6.8-95.5-51.3-95.5-51.3L473.7,619.6z"/>
			<path class="st28" d="M625.4,631.7c0,0-58.6,80.7-64.3,81.8c-5.7,1.2-4.7,7.5-10.4,8.1c-4.2,0.4-51.2-35.9-74.9-54.4l1.3,30
				c0,0,79.2,58.1,95.5,51.3c4.4-1.8,11.6-11.2,19.6-23.9c18.9-36.7,44.2-89.5,44.2-89.5L625.4,631.7z"/>
			<path class="st31" d="M348.8,927.6c0,0,71.4,12.8,116.6,7.5s99.8-20.9,89.4-43.5c-10.4-22.6-85.4-40-109.2-41.8
				c-23.7-1.7-52.7-306.9-72.5-321.5c-19.7-14.5-82.4-10.4-104.4,0c-22,10.4-12.8,153.6-5.2,206.8
				C271.1,788.3,309.9,917.7,348.8,927.6z"/>
			<path class="st32" d="M384.6,932.7c24.3,2.8,56.4,5.3,80.9,2.4c31.7-3.7,68-12.5,83.3-25.2l-1.9-2.6c0,0,6.1-17,6.1-18.3
				c0-0.3-5-4.5-12.9-11.4c-25.9-15.5-75.8-26.5-94.3-27.8c-11.3-0.8-23.7-70-35.8-143.9c-6.4-30.2-12-67-16.1-98.2
				c-5.9-33.8-11.6-61.2-16.7-73.2l-15.8-11.5c-4.8-1.4-10.3-2.4-16.2-3c-5.1,4.6-12.1,12.1-14.5,20.1c-3.9,13.1,0.9,42.6,3.5,46.6
				c2.6,3.9-38.7,56.1-40.5,65.1c-1.7,8.9-4.4,102.1-2.2,117.3c2.2,15.2,26.1,95.3,37,108.4C334.4,884.5,361.5,910.7,384.6,932.7z"
				/>
			<path class="st33" d="M504.8,918c-2.2-3.2-20.4-17.1-20.4-17.1s-85.9,1.2-88.3,0c-2.4-1.2-26-0.6-35.3-4.1
				c-9.3-3.5-21.5-21.5-29.6-36.6c-8.1-15.1-38.9-97.5-45.3-142.7c-6.4-45.3,0.6-162.5-4.4-172.3c-5-9.9-18.2-10.7-18.2-10.7
				c0,0,0,0,0,0.1l0,0c-14.9,30.3-6.6,152.4,0.2,200.5c7.5,53.2,46.4,182.5,85.3,192.4c0,0,71.4,12.8,116.6,7.5
				c5.6-0.6,11.3-1.4,17-2.4C495,927.1,506.3,920.1,504.8,918z"/>
			<path class="st34" d="M519.8,795.9l122.9-60.7l7.8,64.8c0,0-135,49.9-136.4,49.9s-19.4-30-19.4-30L519.8,795.9z"/>
			<path class="st28" d="M518.1,806.9c0,0,63.2-29,74.6-35.7c11.3-6.7,38-28.8,38-28.8l-36.2,76.4c0,0-50.7,11.2-54.1,13.7
				c-3.4,2.5-30.9-15.5-30.9-15.5L518.1,806.9z"/>
			<path class="st27" d="M412.4,886.4c0,0,2.2,19.6,54,21.3c51.8,1.7,142.9-9.7,142.9-9.7l-3.3,150.9h31.3
				c0,0,44.4-187.8,26.5-207.1c-17.6-19.1-182.1-31.4-182.1-31.4L412.4,886.4z"/>
			<path class="st28" d="M613.3,859.1l10.3-28.2l-165.8,5.6l-45.5,49.9c0,0,2.2,19.6,54,21.3c51.8,1.7,142.9-9.7,142.9-9.7
				l-3.3,150.9h16.8c1.2-29.2,8.9-180.5,7.3-183.4C628.2,862.5,613.3,859.1,613.3,859.1z"/>
			<path class="st26" d="M583.7,860.3l-24.4-7l-30.8,40.8l-8.5,5.6c0,0,20.5,19.2,21,19.6s7.3,0,7.3,0V903L583.7,860.3z"/>
			<path class="st29" d="M419.3,554.4c0,0-1.7,29.6,0,37c1.7,7.4,3,15.2,3,15.2s7,35.2-14.8,38.3c-21.8,3-37-35.7-37-35.7l3.9-57
				L419.3,554.4z"/>
			<path class="st35" d="M418.7,568.2l-32-15.4l-12.2-0.6l-3.7,53.6c4.9,3.7,8.9,6.5,9.2,6.5c0.8,0,8.4-28.7,11.9-32.1
				c2.9-2.8,20.9-1.7,26.6-1.3C418.5,575.4,418.6,571.7,418.7,568.2z"/>
			<path class="st36" d="M371.7,592.6l40.9,28.1l6.7-29.3c0,0,20,13.1,31.9,42.4c11.9,29.3-5.2,99.2-5.2,99.2s-22,5.9-23.8,5.7
				c-1.7-0.2-65-65.2-65.6-68.7c-0.6-3.5,5.2-62.1,5.2-62.1L371.7,592.6z"/>
			<path class="st30" d="M368.3,611.8l38.4,36.1l5.7-22.2l20.9,17.8v-36c0,0,15.1,24.1,17.1,44.1c2,20-11,92-11,92
				s-37.5-22.9-54.4-61.5C368,643.6,368.3,611.8,368.3,611.8z"/>
			<polygon class="st31" points="407.7,644 416.4,651.6 421.7,721.9 439.5,744.3 443.7,713.1 425.7,649.8 430.2,641 413.4,624.2 			
				"/>
			<path class="st27" d="M307.9,655.3c0,0,31.4-52,63.8-62.8c0,0-15.1,23.6,18.9,80.2c28.8,48,59.6,69.2,73.1,87
				s41.8,65.8,41.8,65.8s-20.2,38.6-30.2,46c-10,7.4-16.8,11.5-16.8,11.5h-26.5l13.1,24.6c0,0-14.8,17.4-40.3,7
				c-25.5-10.4-67.2-83.6-80.7-151.9S307.9,655.3,307.9,655.3z"/>
			<path class="st28" d="M425.4,851.3c-19.3-5.8-21-18-30-32.8c-9-14.8,10.2-37.5,10.2-37.5l9.7-11.7c0,0-19-7.4-31.1-19
				s-40-68.2-40-68.2s-14,13.7-29.2,28.7c2.3,14.7,5.3,32.1,9.2,51.9c13.5,68.3,55.3,141.4,80.7,151.9c4.4,1.8,8.4,2.8,12.1,3.1
				c11-5.8,19.7-12.5,19.7-12.5l-6.1-22.2l16.8-2.2c0,0,15.4-3.2,22-12.5c6.7-9.3,8.2-18.6,8.2-18.6S444.7,857.1,425.4,851.3z"/>
			<path class="st27" d="M419.3,591.4c0,0,53.4,21.3,54.4,28.3c17.3,119.3,13.9,167.5,57.4,170.2l-14.6,24.3c0,0-51.5-0.3-62.4-16.9
				c-10.9-16.5-20.1-46.7-16.5-80.1C449.7,604.5,431.5,606.6,419.3,591.4z"/>
			<polygon class="st28" points="436.8,731.6 447.2,780.7 463.9,809 441.9,780.2 			"/>
			<path class="st29" d="M449.8,771.4c0,0,32-8.7,71.1-14.4c2.9-0.4,34.3,22.7,39.8,43c1.2,4.2-1.2,39.6-5.4,42.8
				c-4.3,3.2-6.6,4.4-7.1,4s3.8-9.3,3.8-9.3s-9.5,8-11.4,7.8c-2-0.2-2.2,0-2.4-0.9c-0.1-0.9,7.9-12.5,7.9-12.5s-12.7,10.4-14.2,9.4
				s0.1-2.2-0.1-3.5s8.5-13.4,8.5-13.4s3.1-17.1,2.5-18.8c-0.7-1.7-6.9-5.8-10-6.5c0,0,2.5,13.1,2.5,16.4c0,3.3-2.4,8.6-3.3,9
				c-0.9,0.4-4.6,0.1-5.5-5.9c-0.9-6-2.5-12-8.6-15.9c-6.1-4-8.5-11.9-8.6-14.9c-0.1-2.9-1.9-8.2-1.9-8.2l-38.8,12.6L449.8,771.4z"
				/>
			<polygon class="st36" points="467.4,766.6 492,759.1 497.3,785.8 473.1,792.5 			"/>
			<path class="st27" d="M550.7,862.6c0,0,12.3,7.1,23.2,12.8c0,0,56.9-49.8,91.7-84.1c25.8-25.4,8.3-54.7-1.7-56.9
				c-10-2.2-19.9-3.7-37.6,11.7C607.6,762.2,550.7,862.6,550.7,862.6z"/>
			<path class="st28" d="M285.3,826.7c46.1-13.2,173.4-21.1,182.4-13.2s11.5,115.4,8.7,123c-2.8,7.6,5.1,12.8-31,18.1
				s-103.6-6.2-106.6-17.6s1.7-18.5,1.7-18.5s99.7,6.7,108.4-8.6c8.7-15.2,7.8-60.4-0.4-69.9c-8.3-9.5-131.4,2.3-151.2,5.4
				C277.4,848.6,280.2,828.1,285.3,826.7z"/>
			<g>
				<path class="st31" d="M498.5,791.2c-5-7.8-102.8,3-138.1,7.2c-6.6,0.8-11.1,7.2-9.5,13.7h0c1.3,5.1,5.9,8.6,11.2,8.4
					c24.2-0.9,90-3.5,107.9-6.8C492,809.6,504.6,800.7,498.5,791.2z"/>
			</g>
			<path class="st32" d="M497.4,802.2c0-0.2-0.1-0.3-0.1-0.3s-3.4,1.4-9.5,3.6c-6.1,2.2-39.4,5-39.4,5l36.3-18
				c0,0-48.8,1.1-91.4,2.1c-13.1,1.4-24.7,2.7-32.9,3.7c-6.6,0.8-11.1,7.2-9.5,13.7h0c1.3,5.1,5.9,8.6,11.2,8.4
				c24.2-0.9,90-3.5,107.9-6.8C483.1,811.3,492.9,807.1,497.4,802.2z"/>
			<path class="st34" d="M307.9,655.3c0,0,25.2-8.3,35.1,0c9.9,8.3,36.6,119.1,36.6,119.1l102.9-14.7l8.2,34
				c0,0-93.7,27.1-117.5,31.7S307,707.1,305.3,687.4C303.6,667.7,307.9,655.3,307.9,655.3z"/>
			<path class="st29" d="M451.5,465.7c0,0,4.6,47,4.6,64.4c0,17.4-3.5,42.9-31.3,42.9c-27.9,0-55.1-7.5-63.8-27.9
				c0,0-22.6-18.6-22-35.4c0.6-16.8,19.1-5.2,19.1-5.2s-12.8-26.7-4.6-44.1c8.1-17.4,56.9-41.2,72.5-34.8
				C441.7,432.1,451.5,465.7,451.5,465.7z"/>
			<path class="st28" d="M361.2,601.8c0,0-2.2,34.8-1.7,44.4c0.4,9.6,6.7,29.2,6.7,29.2l32.6,18.9l-12.2-3.7l-1.5,12.1l48.1,32.5
				c0,0-47.3-26.5-49.2-28.1s-4.1-4.4-4.1-4.4v-13.4l-18.3-11.7c0,0-3.8-17.8-5-36.1C355.3,623.1,361.2,601.8,361.2,601.8z"/>
			<path class="st28" d="M433.3,600.1c0,0,20.4,33.9,26.7,53.5c0,0-7.8,18.9-11.3,26.1l7.5-8.3l5.1,14.1c0,0-20,28.5-20.5,40.9
				c0,0,15.9-32.6,23.1-39.4l-5-18.6l5-16.9L433.3,600.1z"/>
			<path class="st37" d="M513.3,901.1c0,0,6.4-9.4,15.5-3.4c3.3,2.2,7.5,13.4,12.8,16.1s6.3-3.6,9.2-1.5c2.9,2.2,4.8,10.3,6.8,13.4
				c2,3.1,11,15.8,11,15.8s10.1,5.4,15.9,11.9s6.6,22.4,6.6,22.4L545,939.2L513.3,901.1z"/>
			<path class="st27" d="M587.5,981.1c0,0,4-2.1,3.5-5.3c-0.5-3.1-8.9-17.6-16.2-23.8c-7.3-6.2-24.6-16.9-33-26.6
				c-8.4-9.7-20-23.3-22.7-25.4c-2.7-2-10.4,3.3-11.9,6.4c-1.5,3.1,29.8,34.9,29.8,34.9L587.5,981.1z"/>
			<path class="st28" d="M508.2,905.8c0,0,3.7-4.9,9.6-2.1s14.3,18.4,21.7,25.6c7.5,7.2,23.4,18.7,31,24.8
				c7.6,6.1,22.2,27,15.8,27.5s-32-13.3-41.4-21.5s-8.4-11.5-15.8-19.2c-7.4-7.7-13.3-13-20.3-22.2
				C502,909.4,508.2,905.8,508.2,905.8z"/>
			<path class="st37" d="M602.8,1086.2c0,0,10.8,6.8,21.4,5s13.3-3.6,13.3-3.6s-1.6-6.1-0.9-7.5s2.3-1.6,2.3-1.6l14.8,10l8.8,1.5
				c0,0,18.7-1.6,22.9,0.4c4.2,2,14.4,11.3,14.4,11.3v1.3c0,0-28.7,4.1-47.7,3.2s-56.1-1.9-56.1-1.9s-0.4-6.7,1.6-11.2
				S602.8,1086.2,602.8,1086.2z"/>
			<path class="st35" d="M653.2,564.8c0,0,0.4,5.4,1.5,11.5s2.4,11.7,2.4,11.7s-2.6,10.7,0,11.1c2.6,0.4,9.8,3.5,9.8,3.5
				s-2.6,2.2-5.7,3.7c-3,1.5-11.5,4.4-13.7,3.7s-4.1-2.4-4.4-3.3c-0.2-0.9,2.2-1.7,4.8-12C650.6,584.6,653.2,564.8,653.2,564.8z"/>
			<polygon class="st35" points="655.1,594.9 665.1,599.4 681.4,599.8 668.8,601.6 655.4,598.3 			"/>
			<polygon class="st35" points="655.6,589.9 669,593.1 683.5,592.1 668.7,591.1 655.6,586.7 			"/>
			<polygon class="st35" points="654.2,581.5 667.5,582.8 683.5,581.5 666.9,580.6 653.6,577.6 			"/>
			<polygon class="st35" points="653.3,573.4 673.8,571.6 685.1,565.8 673.7,569.6 653.3,570.3 			"/>
			<path class="st35" d="M554.8,807.4c0,0-5.4-5.2-7.3-6.4c-1.9-1.2-11.6-5.9-15.4-8.5c-3.8-2.5-21.3-13.6-21.3-13.6l-3.4,0.5
				c0,0,1.8,5.2,1.9,8.2c0.1,2.9,2.5,10.9,8.6,14.9c6.1,4,7.7,10,8.6,15.9c0.9,6,4.6,6.3,5.5,5.9c0.9-0.4,3.3-5.7,3.3-9
				c0-3.3-2.5-16.4-2.5-16.4c3.1,0.7,9.4,4.8,10,6.5c0.7,1.7-2.5,18.8-2.5,18.8s-8.7,12.1-8.5,13.4c0.1,0.9-0.5,1.7-0.5,2.5
				c1.2-0.6,2.7-1.7,4.3-3.2c3.3-3.3,10.5-5.1,10.5-5.1s-8.1,11.6-7.9,12.5c0,0.3,0.1,0.4,0.2,0.6c2.2-1.9,5.5-4.8,6.3-5.7
				c1.3-1.3,7.3-1.8,7.3-1.8l-3.8,9.3l6.5-12.2V807.4z"/>
			<path class="st38" d="M375.3,561.5c0,0-24.6-13.8-33.6-27s-20.9-53.7-17.7-66.2c3.2-12.5,11.3-16.2,11.3-16.2
				s30.7-14.4,44.6-27.5s29.8-24.9,48.9-20.8c30.5,6.5,47.7,32.6,40.5,41.3c-7.3,8.7-21.5,11-21.5,11s-14.2-16.5-28.6-14.2
				c-14.4,2.3-18.7,9-29.7,13.3c-11,4.4-18.8,3.8-18.8,3.8s-11.2,17.6-6.2,27.6c7.8,15.7,6.2,32.3,6.2,32.3s-14.9-13.2-18.7-4.2
				c-3.8,9-1.8,17.1,4.5,22.9c6.3,5.8,14.2,9.9,14.2,9.9S375.9,556.1,375.3,561.5z"/>
			<rect x="412.4" y="947.1" class="st28" width="34.7" height="28.7"/>
			<path class="st28" d="M446.6,1029.5h-33.8c-1.2,0-2.1,1-2.1,2.1v27.3c0,1.2,1,2.1,2.1,2.1h33.8c1.2,0,2.1-1,2.1-2.1v-27.3
				C448.7,1030.4,447.8,1029.5,446.6,1029.5z"/>
			<path class="st28" d="M438.9,1041.6c0,0,85.3,19.6,88.6,20.5c3.3,0.9,6.3,20.7,6.3,20.7H512c0,0-5.2-12.1-11.3-13.6
				s-61.8-8.1-61.8-8.1V1041.6z"/>
			<path class="st28" d="M419.3,1040.5c0,0-85.3,19.6-88.6,20.5s-6.3,20.7-6.3,20.7h21.8c0,0,5.2-12.1,11.3-13.6
				c6.1-1.4,61.8-8.1,61.8-8.1V1040.5z"/>
			<path class="st28" d="M436.9,1040.5c0,0-38.3,19.6-39.8,20.5c-1.5,0.9-2.8,20.7-2.8,20.7h9.8c0,0,2.3-12.1,5.1-13.6
				c2.7-1.4,27.8-8.1,27.8-8.1V1040.5z"/>
			<path class="st28" d="M545,1094.2c-0.6-12.2-10.6-21.9-22.9-21.9c-12.3,0-22.3,9.7-22.9,21.9H545z"/>
			<circle class="st27" cx="336.7" cy="1095.3" r="15.6"/>
			<path class="st28" d="M359.6,1094.2c-0.6-12.2-10.6-21.9-22.9-21.9c-12.3,0-22.3,9.7-22.9,21.9H359.6z"/>
			<path class="st27" d="M403.6,1080.5c-1.8,0-3.5,1.9-4.7,5c-1.2-3.1-2.8-5-4.7-5c-3.5,0-6.3,7-6.3,15.6s2.8,15.6,6.3,15.6
				c1.8,0,7.5,0,9.3,0c3.5,0,6.3-7,6.3-15.6S407.1,1080.5,403.6,1080.5z"/>
			<path class="st28" d="M403.6,1073.2c-1.7,0-3.3,1.1-4.7,3.1c-1.4-1.9-3-3.1-4.7-3.1c-5,0-9.1,9.7-9.3,21.9h9.3h9.3h9.3
				C412.7,1082.9,408.6,1073.2,403.6,1073.2z"/>
			
				<ellipse transform="matrix(0.9848 -0.1736 0.1736 0.9848 -81.5843 75.6615)" class="st28" cx="391.7" cy="504.2" rx="3.7" ry="5.4"/>
			
				<ellipse transform="matrix(0.9848 -0.1736 0.1736 0.9848 -80.4879 83.4436)" class="st28" cx="436.8" cy="501.8" rx="3.7" ry="5.4"/>
			<path class="st39" d="M426.7,500.3c0,0,6.6,15.6,12.3,19.6s7.8,4,8.1,6.1c0.2,2.1-5.3,7-8.1,7.9c-2.7,1,4.4-4.4,3-6.5
				c-1.3-2.2-4.2-1.7-7.2-7.5S425.2,503.6,426.7,500.3z"/>
			<path class="st28" d="M412.3,548.4c0,0,22.8,2.3,32.8-4.8c0,0-0.7,9.1-9.7,12.6S412.3,548.4,412.3,548.4z"/>
			<path class="st36" d="M418.1,550.3c0,0,10.2,0.8,16.7-0.6s8.3-2.5,8.3-2.5s-0.5,1.9-1.7,3s-7.7,2.4-12.6,2.6
				S418.1,550.3,418.1,550.3z"/>
			<path class="st28" d="M427.1,492.7c0,0,3.9-6.7,11.1-6.2s13.9,6.3,14.3,5.3c0.3-1-1.1-3-5.4-5.8c-4.4-2.7-8.2-5.2-11.4-3.8
				C432.4,483.7,421.7,495.2,427.1,492.7z"/>
			<path class="st28" d="M408.3,494.2c0,0-3.9-6.7-11.1-6.2s-13.9,6.3-14.3,5.3c-0.3-1,1.1-3,5.4-5.8c4.4-2.7,8.2-5.2,11.4-3.8
				C403.1,485.2,413.8,496.7,408.3,494.2z"/>
		</g>
		
			<rect x="563.4" y="921" transform="matrix(-1.836970e-16 1 -1 -1.836970e-16 1680.4906 177.4064)" class="st24" width="376.3" height="16"/>
		
			<rect x="625.7" y="891.5" transform="matrix(-1.836970e-16 1 -1 -1.836970e-16 1683.9034 115.1242)" class="st24" width="317.4" height="16"/>
		
			<rect x="898.8" y="921" transform="matrix(-1.836970e-16 1 -1 -1.836970e-16 2015.8977 -158.0006)" class="st24" width="376.3" height="16"/>
		
			<rect x="892" y="891.5" transform="matrix(-1.836970e-16 1 -1 -1.836970e-16 1950.2028 -151.1752)" class="st24" width="317.4" height="16"/>
		<rect x="724" y="726.5" class="st40" width="390.3" height="16"/>
		<rect x="759.5" y="742.5" class="st41" width="319.5" height="292.8"/>
		<path class="st42" d="M807.7,697.6h40.1c0,0,1.2,25.8-20,25.8C805.6,723.3,807.7,697.6,807.7,697.6z"/>
		<path class="st43" d="M811.3,700.4h26.6c0,0,0.8,22.4-13.3,22.4C810,722.8,811.3,700.4,811.3,700.4z"/>
		<path class="st43" d="M845.6,722.2h-35.9c-1.6,0-2.4,1.9-1.3,3l0.7,0.7c0.3,0.3,0.8,0.5,1.3,0.5H845c0.5,0,1-0.2,1.4-0.6l0.6-0.7
			C848,723.9,847.2,722.2,845.6,722.2z"/>
		<path class="st43" d="M919.2,717.5v3.5c0,3,2.5,5.5,5.5,5.5h139.8c3,0,5.5-2.5,5.5-5.5v-3.5H919.2z"/>
		<path class="st43" d="M1070,718.2l3.2,1.4c2.8,1.2,6,0,7.3-2.8l57.3-127.6c1.2-2.8,0-6-2.8-7.3l-3.2-1.4L1070,718.2z"/>
	</g>
</g>
<g id="text">
</g>
</svg>
